<svg width="21" height="20" viewBox="0 0 21 20" fill="none" xmlns="http://www.w3.org/2000/svg">
<path d="M1.48914 0.553437C0.750747 1.29135 0.750747 2.48775 1.48914 3.22567L8.26785 10L1.48914 16.7743C0.750744 17.5123 0.750746 18.7086 1.48914 19.4466C2.22753 20.1845 3.4247 20.1845 4.1631 19.4466L10.9418 12.6722L17.7205 19.4465C18.4589 20.1845 19.6561 20.1845 20.3944 19.4465C21.1328 18.7086 21.1328 17.5122 20.3944 16.7743L13.6158 10L20.3944 3.2257C21.1328 2.48778 21.1328 1.29138 20.3944 0.553464C19.6561 -0.184451 18.4589 -0.184451 17.7205 0.553466L10.9418 7.32777L4.1631 0.553437C3.4247 -0.18448 2.22753 -0.18448 1.48914 0.553437Z" fill="#754E29"/>
</svg>
